<?xml version="1.0"?>
<svg width="640" height="480" xmlns="http://www.w3.org/2000/svg" xmlns:svg="http://www.w3.org/2000/svg">
 <!-- Created with SVG-edit - https://github.com/SVG-Edit/svgedit-->
 <g class="layer">
  <title>Layer 1</title>
  <line fill="none" id="svg_1" stroke="#000000" stroke-dasharray="null" stroke-linecap="null" stroke-linejoin="null" stroke-width="5" x1="145.9" x2="144.9" y1="322.300015" y2="143.300001"/>
  <line fill="none" id="svg_2" stroke="#000000" stroke-dasharray="null" stroke-linecap="null" stroke-linejoin="null" stroke-width="5" x1="143.899999" x2="242.899998" y1="144.300003" y2="221.299999"/>
  <line fill="none" id="svg_4" stroke="#000000" stroke-dasharray="null" stroke-linecap="null" stroke-linejoin="null" stroke-width="5" x1="330.399999" x2="240.39999" y1="138.799985" y2="222.799983"/>
  <line fill="none" id="svg_5" stroke="#000000" stroke-dasharray="null" stroke-linecap="null" stroke-linejoin="null" stroke-width="5" x1="329.9" x2="328.9" y1="320.299992" y2="141.299978"/>
  <line fill="none" id="svg_6" stroke="#000000" stroke-dasharray="null" stroke-linecap="null" stroke-linejoin="null" stroke-width="5" x1="478.9" x2="477.9" y1="318.3" y2="139.299986"/>
  <line fill="none" id="svg_7" stroke="#000000" stroke-dasharray="null" stroke-linecap="null" stroke-linejoin="null" stroke-width="5" x1="477.900752" x2="327.900749" y1="318.299996" y2="139.299981"/>
  <line fill="none" id="svg_8" stroke="#000000" stroke-dasharray="null" stroke-linecap="null" stroke-linejoin="null" stroke-width="5" transform="rotate(-0.590654 361.9 249.3)" x1="360.899982" x2="362.899982" y1="319.300014" y2="179.299986"/>
  <line fill="none" id="svg_9" stroke="#000000" stroke-dasharray="null" stroke-linecap="null" stroke-linejoin="null" stroke-width="5" x1="327.900001" x2="362.900001" y1="317.3" y2="318.3"/>
  <path d="m329.9,321.3c0,0 0,-176 0,-176c0,0 34,42 34,42c0,0 -2,135 -2.9,134.7c-0.9,-0.3 -31.1,-0.7 -31.1,-0.7z" fill="#020202" id="svg_10" stroke="#000000" stroke-dasharray="null" stroke-linecap="null" stroke-linejoin="null" stroke-width="5"/>
 </g>
</svg>